<?xml version="1.0" encoding="utf-8"?>
<!-- Generator: Adobe Illustrator 24.0.0, SVG Export Plug-In . SVG Version: 6.00 Build 0)  -->
<svg version="1.1" xmlns="http://www.w3.org/2000/svg" xmlns:xlink="http://www.w3.org/1999/xlink" x="0px" y="0px"
	 viewBox="0 0 64 64" enable-background="new 0 0 64 64" xml:space="preserve">
<g id="Captions">
</g>
<g id="Icons">
	<g>
		<g>
			<path fill="#FAB400" d="M22,14v-4c0-1.105-0.895-2-2-2H6c-1.105,0-2,0.895-2,2v16c0,1.105,0.895,2,2,2h14c1.105,0,2-0.895,2-2v-4
				c2.209,0,4-1.791,4-4C26,15.791,24.209,14,22,14z"/>
		</g>
		<g>
			<path fill="#C80A50" d="M42,14v-4c0-1.105-0.895-2-2-2H24c-1.105,0-2,0.895-2,2v4c2.209,0,4,1.791,4,4c0,2.209-1.791,4-4,4v4
				c0,1.105,0.895,2,2,2h16c1.105,0,2-0.895,2-2v-4c2.209,0,4-1.791,4-4C46,15.791,44.209,14,42,14z"/>
		</g>
		<g>
			<path fill="#A00028" d="M23,14v-4c0-0.507-0.189-0.97-0.5-1.322C22.189,9.03,22,9.493,22,10v4c2.209,0,4,1.791,4,4
				c0,2.209-1.791,4-4,4v4c0,0.507,0.189,0.97,0.5,1.322C22.811,26.97,23,26.507,23,26v-4c2.209,0,4-1.791,4-4
				C27,15.791,25.209,14,23,14z"/>
		</g>
		<g>
			<path fill="#00A0C8" d="M42,10v4c2.209,0,4,1.791,4,4c0,2.209-1.791,4-4,4v4c0,1.105,0.895,2,2,2h14c1.105,0,2-0.895,2-2V10
				c0-1.105-0.895-2-2-2H44C42.895,8,42,8.895,42,10z"/>
		</g>
		<g>
			<path fill="#0082AA" d="M43,14v-4c0-0.507-0.189-0.97-0.5-1.322C42.189,9.03,42,9.493,42,10v4c2.209,0,4,1.791,4,4
				c0,2.209-1.791,4-4,4v4c0,0.507,0.189,0.97,0.5,1.322C42.811,26.97,43,26.507,43,26v-4c2.209,0,4-1.791,4-4
				C47,15.791,45.209,14,43,14z"/>
		</g>
		<polygon fill="#00A0C8" points="56,38 56,50 48,50 48,38 44,38 44,60 60,60 60,38 		"/>
		<polygon fill="#FAB400" points="16,38 16,50 8,50 8,38 4,38 4,60 20,60 20,38 		"/>
		<g>
			<g>
				<path fill="#0A5078" d="M33,36h-2c-2.761,0-5,2.239-5,5v10c0,0.552,0.448,1,1,1h10c0.552,0,1-0.448,1-1V41
					C38,38.239,35.761,36,33,36z"/>
			</g>
			<polygon fill="#C80A50" points="36,38 36,50 28,50 28,38 24,38 24,60 40,60 40,38 			"/>
			<g>
				<path fill="#00A0C8" d="M28,50c0,2.209,1.791,4,4,4s4-1.791,4-4H28z"/>
			</g>
			<g>
				<path fill="#D2AA82" d="M32,52L32,52c-1.105,0-2-0.895-2-2v-3h4v3C34,51.105,33.105,52,32,52z"/>
			</g>
			<g>
				<path fill="#F0C8A0" d="M33,48h-2c-1.657,0-3-1.343-3-3v-3c0-1.105,0.895-2,2-2h1v0c0,1.105,0.895,2,2,2h3v3
					C36,46.657,34.657,48,33,48z"/>
			</g>
		</g>
		<g>
			<g>
				<path fill="#00A0C8" d="M8,50c0,2.209,1.791,4,4,4s4-1.791,4-4H8z"/>
			</g>
			<g>
				<path fill="#D2AA82" d="M12,52L12,52c-1.105,0-2-0.895-2-2v-3h4v3C14,51.105,13.105,52,12,52z"/>
			</g>
			<g>
				<path fill="#F0C8A0" d="M13,48h-2c-1.657,0-3-1.343-3-3v-3c0-1.105,0.895-2,2-2h4c1.105,0,2,0.895,2,2v3
					C16,46.657,14.657,48,13,48z"/>
			</g>
			<g>
				<path fill="#0A5078" d="M14,40h-4c-1.105,0-2,0.895-2,2v0v-2c0-1.105,0.895-2,2-2h4c1.105,0,2,0.895,2,2v2v0
					C16,40.895,15.105,40,14,40z"/>
			</g>
		</g>
		<path fill="#F0C8A0" d="M8,35v-1c0-1.105-0.895-2-2-2s-2,0.895-2,2v4h4v-1c0.552,0,1-0.448,1-1C9,35.448,8.552,35,8,35z"/>
		<path fill="#F0C8A0" d="M18,32c-1.105,0-2,0.895-2,2v1c-0.552,0-1,0.448-1,1c0,0.552,0.448,1,1,1v1h4v-4
			C20,32.895,19.105,32,18,32z"/>
		<path fill="#F0C8A0" d="M28,35v-1c0-1.105-0.895-2-2-2s-2,0.895-2,2v4h4v-1c0.552,0,1-0.448,1-1C29,35.448,28.552,35,28,35z"/>
		<path fill="#F0C8A0" d="M38,32c-1.105,0-2,0.895-2,2v1c-0.552,0-1,0.448-1,1c0,0.552,0.448,1,1,1v1h4v-4
			C40,32.895,39.105,32,38,32z"/>
		<g>
			<g>
				<path fill="#0A5078" d="M48,50c0,2.209,1.791,4,4,4s4-1.791,4-4H48z"/>
			</g>
			<g>
				<path fill="#D2AA82" d="M52,52L52,52c-1.105,0-2-0.895-2-2v-3h4v3C54,51.105,53.105,52,52,52z"/>
			</g>
			<g>
				<path fill="#F0C8A0" d="M53,48h-2c-1.657,0-3-1.343-3-3v-3c0-1.105,0.895-2,2-2h4c1.105,0,2,0.895,2,2v3
					C56,46.657,54.657,48,53,48z"/>
			</g>
			<g>
				<path fill="#DC9600" d="M54,40h-4c-1.105,0-2,0.895-2,2v0v-2c0-1.105,0.895-2,2-2h4c1.105,0,2,0.895,2,2v2v0
					C56,40.895,55.105,40,54,40z"/>
			</g>
		</g>
		<path fill="#F0C8A0" d="M48,35v-1c0-1.105-0.895-2-2-2s-2,0.895-2,2v4h4v-1c0.552,0,1-0.448,1-1C49,35.448,48.552,35,48,35z"/>
		<path fill="#F0C8A0" d="M58,32c-1.105,0-2,0.895-2,2v1c-0.552,0-1,0.448-1,1c0,0.552,0.448,1,1,1v1h4v-4
			C60,32.895,59.105,32,58,32z"/>
	</g>
	<g>
		<path fill="#DC9600" d="M16,22h-6c-0.552,0-1-0.448-1-1v-6c0-0.552,0.448-1,1-1h6c0.552,0,1,0.448,1,1v6
			C17,21.552,16.552,22,16,22z"/>
	</g>
	<g>
		<path fill="#A00028" d="M32.152,15.357l-3.196,5.113C28.54,21.136,29.019,22,29.804,22h6.392c0.785,0,1.264-0.864,0.848-1.53
			l-3.196-5.113C33.456,14.73,32.544,14.73,32.152,15.357z"/>
	</g>
	<g>
		<circle fill="#0082AA" cx="52" cy="18" r="4"/>
	</g>
</g>
</svg>
